<svg xmlns="http://www.w3.org/2000/svg" viewBox="0 0 64 64">
  <!-- GENERADO por scripts/generar_iconos.py — no se edita a mano. -->
  <defs><linearGradient id="banda" x1="0" y1="0" x2="1" y2="0.78">
    <stop offset="0.30" stop-color="#1c1f26"/><stop offset="1" stop-color="#47201a"/>
  </linearGradient></defs>
  <rect width="64" height="64" rx="14" fill="url(#banda)"/>
  <rect x="12.16" y="43.56" width="8.28" height="8.28" rx="1.33" fill="#f8dfdb"/>
  <rect x="12.16" y="33.09" width="8.28" height="8.28" rx="1.33" fill="#f4f2ee" fill-opacity="0.13"/>
  <rect x="12.16" y="22.63" width="8.28" height="8.28" rx="1.33" fill="#f4f2ee" fill-opacity="0.13"/>
  <rect x="12.16" y="12.16" width="8.28" height="8.28" rx="1.33" fill="#f4f2ee" fill-opacity="0.13"/>
  <rect x="22.63" y="43.56" width="8.28" height="8.28" rx="1.33" fill="#faecc7"/>
  <rect x="22.63" y="33.09" width="8.28" height="8.28" rx="1.33" fill="#faecc7"/>
  <rect x="22.63" y="22.63" width="8.28" height="8.28" rx="1.33" fill="#f4f2ee" fill-opacity="0.13"/>
  <rect x="22.63" y="12.16" width="8.28" height="8.28" rx="1.33" fill="#f4f2ee" fill-opacity="0.13"/>
  <rect x="33.09" y="43.56" width="8.28" height="8.28" rx="1.33" fill="#dcebe4"/>
  <rect x="33.09" y="33.09" width="8.28" height="8.28" rx="1.33" fill="#dcebe4"/>
  <rect x="33.09" y="22.63" width="8.28" height="8.28" rx="1.33" fill="#dcebe4"/>
  <rect x="33.09" y="12.16" width="8.28" height="8.28" rx="1.33" fill="#f4f2ee" fill-opacity="0.13"/>
  <rect x="43.56" y="43.56" width="8.28" height="8.28" rx="1.33" fill="#dcefda"/>
  <rect x="43.56" y="33.09" width="8.28" height="8.28" rx="1.33" fill="#dcefda"/>
  <rect x="43.56" y="22.63" width="8.28" height="8.28" rx="1.33" fill="#dcefda"/>
  <rect x="43.56" y="12.16" width="8.28" height="8.28" rx="1.33" fill="#dcefda"/>
</svg>
